solid OpenSCAD_Model
  facet normal -1 0 0
    outer loop
      vertex 0 2.5 0
      vertex 0 1.3 1.2
      vertex 0 2.5 8
    endloop
  endfacet
  facet normal -1 0 0
    outer loop
      vertex 0 2.5 0
      vertex 0 -1.3 1.2
      vertex 0 1.3 1.2
    endloop
  endfacet
  facet normal -1 -0 0
    outer loop
      vertex 0 -1.3 1.2
      vertex 0 -2.5 0
      vertex 0 -1.3 6.8
    endloop
  endfacet
  facet normal -1 0 0
    outer loop
      vertex 0 -2.5 0
      vertex 0 -1.3 1.2
      vertex 0 2.5 0
    endloop
  endfacet
  facet normal -1 0 0
    outer loop
      vertex 0 1.3 6.8
      vertex 0 2.5 8
      vertex 0 1.3 1.2
    endloop
  endfacet
  facet normal -1 0 0
    outer loop
      vertex 0 -1.3 6.8
      vertex 0 2.5 8
      vertex 0 1.3 6.8
    endloop
  endfacet
  facet normal -1 0 0
    outer loop
      vertex 0 -1.3 6.8
      vertex 0 -2.5 8
      vertex 0 2.5 8
    endloop
  endfacet
  facet normal -1 0 0
    outer loop
      vertex 0 -2.5 8
      vertex 0 -1.3 6.8
      vertex 0 -2.5 0
    endloop
  endfacet
  facet normal -0 0 1
    outer loop
      vertex 0 2.5 8
      vertex 18.75 2.1 8
      vertex 18.75 2.5 8
    endloop
  endfacet
  facet normal 0 0 1
    outer loop
      vertex 18.75 2.1 8
      vertex 0 2.5 8
      vertex 18.75 -2.1 8
    endloop
  endfacet
  facet normal 0 0 1
    outer loop
      vertex 0 -2.5 8
      vertex 18.75 -2.1 8
      vertex 0 2.5 8
    endloop
  endfacet
  facet normal 0 0 1
    outer loop
      vertex 18.75 -2.1 8
      vertex 0 -2.5 8
      vertex 18.75 -2.5 8
    endloop
  endfacet
  facet normal -0 0 1
    outer loop
      vertex 18.75 2.1 8
      vertex 56.25 -2.1 8
      vertex 56.25 2.1 8
    endloop
  endfacet
  facet normal 0 0 1
    outer loop
      vertex 56.25 -2.1 8
      vertex 18.75 2.1 8
      vertex 18.75 -2.1 8
    endloop
  endfacet
  facet normal 0 0 1
    outer loop
      vertex 56.25 2.1 8
      vertex 93.75 2.1 8
      vertex 93.75 2.5 8
    endloop
  endfacet
  facet normal 0 0 1
    outer loop
      vertex 93.75 2.1 8
      vertex 56.25 2.1 8
      vertex 93.75 -2.1 8
    endloop
  endfacet
  facet normal 0 0 1
    outer loop
      vertex 56.25 2.1 8
      vertex 93.75 2.5 8
      vertex 56.25 2.5 8
    endloop
  endfacet
  facet normal 0 0 1
    outer loop
      vertex 56.25 -2.1 8
      vertex 93.75 -2.1 8
      vertex 56.25 2.1 8
    endloop
  endfacet
  facet normal 0 0 1
    outer loop
      vertex 93.75 -2.1 8
      vertex 56.25 -2.1 8
      vertex 93.75 -2.5 8
    endloop
  endfacet
  facet normal 0 0 1
    outer loop
      vertex 93.75 -2.5 8
      vertex 56.25 -2.1 8
      vertex 56.25 -2.5 8
    endloop
  endfacet
  facet normal -0 0 1
    outer loop
      vertex 93.75 2.1 8
      vertex 131.25 -2.1 8
      vertex 131.25 2.1 8
    endloop
  endfacet
  facet normal 0 0 1
    outer loop
      vertex 131.25 -2.1 8
      vertex 93.75 2.1 8
      vertex 93.75 -2.1 8
    endloop
  endfacet
  facet normal 0 0 1
    outer loop
      vertex 131.25 2.1 8
      vertex 150 2.5 8
      vertex 131.25 2.5 8
    endloop
  endfacet
  facet normal 0 0 1
    outer loop
      vertex 150 2.5 8
      vertex 131.25 2.1 8
      vertex 150 -2.5 8
    endloop
  endfacet
  facet normal -0 0 1
    outer loop
      vertex 131.25 -2.1 8
      vertex 150 -2.5 8
      vertex 131.25 2.1 8
    endloop
  endfacet
  facet normal 0 0 1
    outer loop
      vertex 150 -2.5 8
      vertex 131.25 -2.1 8
      vertex 131.25 -2.5 8
    endloop
  endfacet
  facet normal -1 0 0
    outer loop
      vertex 146 -1.3 1.2
      vertex 146 1.3 6.8
      vertex 146 1.3 1.2
    endloop
  endfacet
  facet normal -1 -0 0
    outer loop
      vertex 146 1.3 6.8
      vertex 146 -1.3 1.2
      vertex 146 -1.3 6.8
    endloop
  endfacet
  facet normal 0 1 -0
    outer loop
      vertex 150 2.5 0
      vertex 131.25 2.5 8
      vertex 150 2.5 8
    endloop
  endfacet
  facet normal 0 1 0
    outer loop
      vertex 131.25 2.5 8
      vertex 150 2.5 0
      vertex 131.25 2.5 0
    endloop
  endfacet
  facet normal 0 1 0
    outer loop
      vertex 18.75 2.5 8
      vertex 10 2.5 5.2
      vertex 0 2.5 8
    endloop
  endfacet
  facet normal 0 1 0
    outer loop
      vertex 18.75 2.5 8
      vertex 10.1566 2.5 5.18973
      vertex 10 2.5 5.2
    endloop
  endfacet
  facet normal 0 1 0
    outer loop
      vertex 18.75 2.5 8
      vertex 10.3106 2.5 5.15911
      vertex 10.1566 2.5 5.18973
    endloop
  endfacet
  facet normal 0 1 0
    outer loop
      vertex 18.75 2.5 8
      vertex 10.4592 2.5 5.10865
      vertex 10.3106 2.5 5.15911
    endloop
  endfacet
  facet normal 0 1 0
    outer loop
      vertex 18.75 2.5 8
      vertex 10.6 2.5 5.03923
      vertex 10.4592 2.5 5.10865
    endloop
  endfacet
  facet normal 0 1 0
    outer loop
      vertex 18.75 2.5 8
      vertex 10.7305 2.5 4.95202
      vertex 10.6 2.5 5.03923
    endloop
  endfacet
  facet normal 0 1 0
    outer loop
      vertex 18.75 2.5 8
      vertex 10.8485 2.5 4.84853
      vertex 10.7305 2.5 4.95202
    endloop
  endfacet
  facet normal 0 1 0
    outer loop
      vertex 18.75 2.5 8
      vertex 10.952 2.5 4.73051
      vertex 10.8485 2.5 4.84853
    endloop
  endfacet
  facet normal 0 1 0
    outer loop
      vertex 18.75 2.5 8
      vertex 11.0392 2.5 4.6
      vertex 10.952 2.5 4.73051
    endloop
  endfacet
  facet normal 0 1 0
    outer loop
      vertex 18.75 2.5 8
      vertex 11.1087 2.5 4.45922
      vertex 11.0392 2.5 4.6
    endloop
  endfacet
  facet normal 0 1 0
    outer loop
      vertex 18.75 2.5 8
      vertex 11.1591 2.5 4.31058
      vertex 11.1087 2.5 4.45922
    endloop
  endfacet
  facet normal 0 1 0
    outer loop
      vertex 18.75 2.5 8
      vertex 11.1897 2.5 4.15663
      vertex 11.1591 2.5 4.31058
    endloop
  endfacet
  facet normal 0 1 0
    outer loop
      vertex 18.75 2.5 8
      vertex 11.2 2.5 4
      vertex 11.1897 2.5 4.15663
    endloop
  endfacet
  facet normal 0 1 -0
    outer loop
      vertex 18.75 2.5 0
      vertex 11.2 2.5 4
      vertex 18.75 2.5 8
    endloop
  endfacet
  facet normal 0 1 0
    outer loop
      vertex 11.2 2.5 4
      vertex 18.75 2.5 0
      vertex 11.1897 2.5 3.84337
    endloop
  endfacet
  facet normal 0 1 0
    outer loop
      vertex 11.1897 2.5 3.84337
      vertex 18.75 2.5 0
      vertex 11.1591 2.5 3.68942
    endloop
  endfacet
  facet normal 0 1 0
    outer loop
      vertex 11.1591 2.5 3.68942
      vertex 18.75 2.5 0
      vertex 11.1087 2.5 3.54078
    endloop
  endfacet
  facet normal 0 1 0
    outer loop
      vertex 11.1087 2.5 3.54078
      vertex 18.75 2.5 0
      vertex 11.0392 2.5 3.4
    endloop
  endfacet
  facet normal 0 1 0
    outer loop
      vertex 11.0392 2.5 3.4
      vertex 18.75 2.5 0
      vertex 10.952 2.5 3.26949
    endloop
  endfacet
  facet normal 0 1 0
    outer loop
      vertex 10.952 2.5 3.26949
      vertex 18.75 2.5 0
      vertex 10.8485 2.5 3.15147
    endloop
  endfacet
  facet normal 0 1 0
    outer loop
      vertex 10.8485 2.5 3.15147
      vertex 18.75 2.5 0
      vertex 10.7305 2.5 3.04798
    endloop
  endfacet
  facet normal 0 1 0
    outer loop
      vertex 10.1566 2.5 2.81027
      vertex 18.75 2.5 0
      vertex 10 2.5 2.8
    endloop
  endfacet
  facet normal 0 1 0
    outer loop
      vertex 10.3106 2.5 2.84089
      vertex 18.75 2.5 0
      vertex 10.1566 2.5 2.81027
    endloop
  endfacet
  facet normal 0 1 0
    outer loop
      vertex 10.4592 2.5 2.89134
      vertex 18.75 2.5 0
      vertex 10.3106 2.5 2.84089
    endloop
  endfacet
  facet normal 0 1 0
    outer loop
      vertex 10.6 2.5 2.96077
      vertex 18.75 2.5 0
      vertex 10.4592 2.5 2.89134
    endloop
  endfacet
  facet normal 0 1 0
    outer loop
      vertex 10.7305 2.5 3.04798
      vertex 18.75 2.5 0
      vertex 10.6 2.5 2.96077
    endloop
  endfacet
  facet normal 0 1 -0
    outer loop
      vertex 9.84337 2.5 5.18973
      vertex 0 2.5 8
      vertex 10 2.5 5.2
    endloop
  endfacet
  facet normal 0 1 -0
    outer loop
      vertex 9.68942 2.5 5.15911
      vertex 0 2.5 8
      vertex 9.84337 2.5 5.18973
    endloop
  endfacet
  facet normal 0 1 -0
    outer loop
      vertex 9.54078 2.5 5.10865
      vertex 0 2.5 8
      vertex 9.68942 2.5 5.15911
    endloop
  endfacet
  facet normal 0 1 -0
    outer loop
      vertex 9.4 2.5 5.03923
      vertex 0 2.5 8
      vertex 9.54078 2.5 5.10865
    endloop
  endfacet
  facet normal 0 1 -0
    outer loop
      vertex 9.26949 2.5 4.95202
      vertex 0 2.5 8
      vertex 9.4 2.5 5.03923
    endloop
  endfacet
  facet normal 0 1 -0
    outer loop
      vertex 9.15147 2.5 4.84853
      vertex 0 2.5 8
      vertex 9.26949 2.5 4.95202
    endloop
  endfacet
  facet normal 0 1 -0
    outer loop
      vertex 9.04798 2.5 4.73051
      vertex 0 2.5 8
      vertex 9.15147 2.5 4.84853
    endloop
  endfacet
  facet normal 0 1 -0
    outer loop
      vertex 8.96077 2.5 4.6
      vertex 0 2.5 8
      vertex 9.04798 2.5 4.73051
    endloop
  endfacet
  facet normal 0 1 -0
    outer loop
      vertex 8.89134 2.5 4.45922
      vertex 0 2.5 8
      vertex 8.96077 2.5 4.6
    endloop
  endfacet
  facet normal 0 1 -0
    outer loop
      vertex 8.84089 2.5 4.31058
      vertex 0 2.5 8
      vertex 8.89134 2.5 4.45922
    endloop
  endfacet
  facet normal 0 1 -0
    outer loop
      vertex 8.81027 2.5 4.15663
      vertex 0 2.5 8
      vertex 8.84089 2.5 4.31058
    endloop
  endfacet
  facet normal 0 1 -0
    outer loop
      vertex 8.8 2.5 4
      vertex 0 2.5 8
      vertex 8.81027 2.5 4.15663
    endloop
  endfacet
  facet normal 0 1 0
    outer loop
      vertex 0 2.5 0
      vertex 8.8 2.5 4
      vertex 8.81027 2.5 3.84337
    endloop
  endfacet
  facet normal 0 1 0
    outer loop
      vertex 0 2.5 0
      vertex 8.81027 2.5 3.84337
      vertex 8.84089 2.5 3.68942
    endloop
  endfacet
  facet normal 0 1 0
    outer loop
      vertex 0 2.5 0
      vertex 8.84089 2.5 3.68942
      vertex 8.89134 2.5 3.54078
    endloop
  endfacet
  facet normal 0 1 0
    outer loop
      vertex 0 2.5 0
      vertex 8.89134 2.5 3.54078
      vertex 8.96077 2.5 3.4
    endloop
  endfacet
  facet normal 0 1 0
    outer loop
      vertex 0 2.5 0
      vertex 8.96077 2.5 3.4
      vertex 9.04798 2.5 3.26949
    endloop
  endfacet
  facet normal 0 1 0
    outer loop
      vertex 0 2.5 0
      vertex 9.04798 2.5 3.26949
      vertex 9.15147 2.5 3.15147
    endloop
  endfacet
  facet normal 0 1 0
    outer loop
      vertex 0 2.5 0
      vertex 9.15147 2.5 3.15147
      vertex 9.26949 2.5 3.04798
    endloop
  endfacet
  facet normal 0 1 0
    outer loop
      vertex 0 2.5 0
      vertex 9.26949 2.5 3.04798
      vertex 9.4 2.5 2.96077
    endloop
  endfacet
  facet normal 0 1 0
    outer loop
      vertex 0 2.5 0
      vertex 10 2.5 2.8
      vertex 18.75 2.5 0
    endloop
  endfacet
  facet normal 0 1 0
    outer loop
      vertex 10 2.5 2.8
      vertex 0 2.5 0
      vertex 9.84337 2.5 2.81027
    endloop
  endfacet
  facet normal 0 1 0
    outer loop
      vertex 8.8 2.5 4
      vertex 0 2.5 0
      vertex 0 2.5 8
    endloop
  endfacet
  facet normal 0 1 0
    outer loop
      vertex 9.54078 2.5 2.89134
      vertex 0 2.5 0
      vertex 9.4 2.5 2.96077
    endloop
  endfacet
  facet normal 0 1 0
    outer loop
      vertex 9.68942 2.5 2.84089
      vertex 0 2.5 0
      vertex 9.54078 2.5 2.89134
    endloop
  endfacet
  facet normal 0 1 0
    outer loop
      vertex 9.84337 2.5 2.81027
      vertex 0 2.5 0
      vertex 9.68942 2.5 2.84089
    endloop
  endfacet
  facet normal 0 1 -0
    outer loop
      vertex 93.75 2.5 0
      vertex 56.25 2.5 8
      vertex 93.75 2.5 8
    endloop
  endfacet
  facet normal 0 1 0
    outer loop
      vertex 56.25 2.5 8
      vertex 93.75 2.5 0
      vertex 56.25 2.5 0
    endloop
  endfacet
  facet normal 0 0 -1
    outer loop
      vertex 0 -2.5 0
      vertex 18.75 -2.1 0
      vertex 18.75 -2.5 0
    endloop
  endfacet
  facet normal -0 0 -1
    outer loop
      vertex 18.75 -2.1 0
      vertex 0 -2.5 0
      vertex 18.75 2.1 0
    endloop
  endfacet
  facet normal 0 0 -1
    outer loop
      vertex 0 2.5 0
      vertex 18.75 2.1 0
      vertex 0 -2.5 0
    endloop
  endfacet
  facet normal 0 0 -1
    outer loop
      vertex 18.75 2.1 0
      vertex 0 2.5 0
      vertex 18.75 2.5 0
    endloop
  endfacet
  facet normal 0 0 -1
    outer loop
      vertex 18.75 -2.1 0
      vertex 56.25 2.1 0
      vertex 56.25 -2.1 0
    endloop
  endfacet
  facet normal -0 0 -1
    outer loop
      vertex 56.25 2.1 0
      vertex 18.75 -2.1 0
      vertex 18.75 2.1 0
    endloop
  endfacet
  facet normal 0 0 -1
    outer loop
      vertex 56.25 -2.1 0
      vertex 93.75 -2.1 0
      vertex 93.75 -2.5 0
    endloop
  endfacet
  facet normal 0 0 -1
    outer loop
      vertex 93.75 -2.1 0
      vertex 56.25 -2.1 0
      vertex 93.75 2.1 0
    endloop
  endfacet
  facet normal 0 0 -1
    outer loop
      vertex 56.25 -2.1 0
      vertex 93.75 -2.5 0
      vertex 56.25 -2.5 0
    endloop
  endfacet
  facet normal 0 0 -1
    outer loop
      vertex 56.25 2.1 0
      vertex 93.75 2.1 0
      vertex 56.25 -2.1 0
    endloop
  endfacet
  facet normal 0 0 -1
    outer loop
      vertex 93.75 2.1 0
      vertex 56.25 2.1 0
      vertex 93.75 2.5 0
    endloop
  endfacet
  facet normal -0 0 -1
    outer loop
      vertex 93.75 2.5 0
      vertex 56.25 2.1 0
      vertex 56.25 2.5 0
    endloop
  endfacet
  facet normal 0 0 -1
    outer loop
      vertex 93.75 -2.1 0
      vertex 131.25 2.1 0
      vertex 131.25 -2.1 0
    endloop
  endfacet
  facet normal -0 0 -1
    outer loop
      vertex 131.25 2.1 0
      vertex 93.75 -2.1 0
      vertex 93.75 2.1 0
    endloop
  endfacet
  facet normal 0 0 -1
    outer loop
      vertex 131.25 -2.1 0
      vertex 150 -2.5 0
      vertex 131.25 -2.5 0
    endloop
  endfacet
  facet normal 0 0 -1
    outer loop
      vertex 150 -2.5 0
      vertex 131.25 -2.1 0
      vertex 150 2.5 0
    endloop
  endfacet
  facet normal 0 0 -1
    outer loop
      vertex 131.25 2.1 0
      vertex 150 2.5 0
      vertex 131.25 -2.1 0
    endloop
  endfacet
  facet normal -0 0 -1
    outer loop
      vertex 150 2.5 0
      vertex 131.25 2.1 0
      vertex 131.25 2.5 0
    endloop
  endfacet
  facet normal 0 -1 0
    outer loop
      vertex 131.25 -2.5 0
      vertex 150 -2.5 8
      vertex 131.25 -2.5 8
    endloop
  endfacet
  facet normal 0 -1 -0
    outer loop
      vertex 150 -2.5 8
      vertex 131.25 -2.5 0
      vertex 150 -2.5 0
    endloop
  endfacet
  facet normal 0 -1 0
    outer loop
      vertex 0 -2.5 8
      vertex 10 -2.5 5.2
      vertex 18.75 -2.5 8
    endloop
  endfacet
  facet normal 0 -1 0
    outer loop
      vertex 0 -2.5 8
      vertex 9.84337 -2.5 5.18973
      vertex 10 -2.5 5.2
    endloop
  endfacet
  facet normal 0 -1 0
    outer loop
      vertex 0 -2.5 8
      vertex 9.68942 -2.5 5.15911
      vertex 9.84337 -2.5 5.18973
    endloop
  endfacet
  facet normal 0 -1 0
    outer loop
      vertex 0 -2.5 8
      vertex 9.54078 -2.5 5.10865
      vertex 9.68942 -2.5 5.15911
    endloop
  endfacet
  facet normal 0 -1 0
    outer loop
      vertex 0 -2.5 8
      vertex 9.4 -2.5 5.03923
      vertex 9.54078 -2.5 5.10865
    endloop
  endfacet
  facet normal 0 -1 0
    outer loop
      vertex 0 -2.5 8
      vertex 9.26949 -2.5 4.95202
      vertex 9.4 -2.5 5.03923
    endloop
  endfacet
  facet normal 0 -1 0
    outer loop
      vertex 0 -2.5 8
      vertex 9.15147 -2.5 4.84853
      vertex 9.26949 -2.5 4.95202
    endloop
  endfacet
  facet normal 0 -1 0
    outer loop
      vertex 0 -2.5 8
      vertex 9.04798 -2.5 4.73051
      vertex 9.15147 -2.5 4.84853
    endloop
  endfacet
  facet normal 0 -1 0
    outer loop
      vertex 0 -2.5 8
      vertex 8.96077 -2.5 4.6
      vertex 9.04798 -2.5 4.73051
    endloop
  endfacet
  facet normal 0 -1 0
    outer loop
      vertex 0 -2.5 8
      vertex 8.89134 -2.5 4.45922
      vertex 8.96077 -2.5 4.6
    endloop
  endfacet
  facet normal 0 -1 0
    outer loop
      vertex 0 -2.5 8
      vertex 8.84089 -2.5 4.31058
      vertex 8.89134 -2.5 4.45922
    endloop
  endfacet
  facet normal 0 -1 0
    outer loop
      vertex 0 -2.5 8
      vertex 8.81027 -2.5 4.15663
      vertex 8.84089 -2.5 4.31058
    endloop
  endfacet
  facet normal 0 -1 0
    outer loop
      vertex 0 -2.5 8
      vertex 8.8 -2.5 4
      vertex 8.81027 -2.5 4.15663
    endloop
  endfacet
  facet normal 0 -1 0
    outer loop
      vertex 0 -2.5 0
      vertex 8.8 -2.5 4
      vertex 0 -2.5 8
    endloop
  endfacet
  facet normal 0 -1 -0
    outer loop
      vertex 8.8 -2.5 4
      vertex 0 -2.5 0
      vertex 8.81027 -2.5 3.84337
    endloop
  endfacet
  facet normal 0 -1 -0
    outer loop
      vertex 8.81027 -2.5 3.84337
      vertex 0 -2.5 0
      vertex 8.84089 -2.5 3.68942
    endloop
  endfacet
  facet normal 0 -1 -0
    outer loop
      vertex 8.84089 -2.5 3.68942
      vertex 0 -2.5 0
      vertex 8.89134 -2.5 3.54078
    endloop
  endfacet
  facet normal 0 -1 -0
    outer loop
      vertex 8.89134 -2.5 3.54078
      vertex 0 -2.5 0
      vertex 8.96077 -2.5 3.4
    endloop
  endfacet
  facet normal 0 -1 -0
    outer loop
      vertex 8.96077 -2.5 3.4
      vertex 0 -2.5 0
      vertex 9.04798 -2.5 3.26949
    endloop
  endfacet
  facet normal 0 -1 -0
    outer loop
      vertex 9.04798 -2.5 3.26949
      vertex 0 -2.5 0
      vertex 9.15147 -2.5 3.15147
    endloop
  endfacet
  facet normal 0 -1 -0
    outer loop
      vertex 9.15147 -2.5 3.15147
      vertex 0 -2.5 0
      vertex 9.26949 -2.5 3.04798
    endloop
  endfacet
  facet normal 0 -1 -0
    outer loop
      vertex 9.84337 -2.5 2.81027
      vertex 0 -2.5 0
      vertex 10 -2.5 2.8
    endloop
  endfacet
  facet normal 0 -1 -0
    outer loop
      vertex 9.68942 -2.5 2.84089
      vertex 0 -2.5 0
      vertex 9.84337 -2.5 2.81027
    endloop
  endfacet
  facet normal 0 -1 -0
    outer loop
      vertex 9.54078 -2.5 2.89134
      vertex 0 -2.5 0
      vertex 9.68942 -2.5 2.84089
    endloop
  endfacet
  facet normal 0 -1 -0
    outer loop
      vertex 9.4 -2.5 2.96077
      vertex 0 -2.5 0
      vertex 9.54078 -2.5 2.89134
    endloop
  endfacet
  facet normal 0 -1 -0
    outer loop
      vertex 9.26949 -2.5 3.04798
      vertex 0 -2.5 0
      vertex 9.4 -2.5 2.96077
    endloop
  endfacet
  facet normal 0 -1 0
    outer loop
      vertex 10.1566 -2.5 5.18973
      vertex 18.75 -2.5 8
      vertex 10 -2.5 5.2
    endloop
  endfacet
  facet normal 0 -1 0
    outer loop
      vertex 10.3106 -2.5 5.15911
      vertex 18.75 -2.5 8
      vertex 10.1566 -2.5 5.18973
    endloop
  endfacet
  facet normal 0 -1 0
    outer loop
      vertex 10.4592 -2.5 5.10865
      vertex 18.75 -2.5 8
      vertex 10.3106 -2.5 5.15911
    endloop
  endfacet
  facet normal 0 -1 0
    outer loop
      vertex 10.6 -2.5 5.03923
      vertex 18.75 -2.5 8
      vertex 10.4592 -2.5 5.10865
    endloop
  endfacet
  facet normal 0 -1 0
    outer loop
      vertex 10.7305 -2.5 4.95202
      vertex 18.75 -2.5 8
      vertex 10.6 -2.5 5.03923
    endloop
  endfacet
  facet normal 0 -1 0
    outer loop
      vertex 10.8485 -2.5 4.84853
      vertex 18.75 -2.5 8
      vertex 10.7305 -2.5 4.95202
    endloop
  endfacet
  facet normal 0 -1 0
    outer loop
      vertex 10.952 -2.5 4.73051
      vertex 18.75 -2.5 8
      vertex 10.8485 -2.5 4.84853
    endloop
  endfacet
  facet normal 0 -1 0
    outer loop
      vertex 11.0392 -2.5 4.6
      vertex 18.75 -2.5 8
      vertex 10.952 -2.5 4.73051
    endloop
  endfacet
  facet normal 0 -1 0
    outer loop
      vertex 11.1087 -2.5 4.45922
      vertex 18.75 -2.5 8
      vertex 11.0392 -2.5 4.6
    endloop
  endfacet
  facet normal 0 -1 0
    outer loop
      vertex 11.1591 -2.5 4.31058
      vertex 18.75 -2.5 8
      vertex 11.1087 -2.5 4.45922
    endloop
  endfacet
  facet normal 0 -1 0
    outer loop
      vertex 11.1897 -2.5 4.15663
      vertex 18.75 -2.5 8
      vertex 11.1591 -2.5 4.31058
    endloop
  endfacet
  facet normal 0 -1 0
    outer loop
      vertex 11.2 -2.5 4
      vertex 18.75 -2.5 8
      vertex 11.1897 -2.5 4.15663
    endloop
  endfacet
  facet normal 0 -1 0
    outer loop
      vertex 18.75 -2.5 0
      vertex 11.2 -2.5 4
      vertex 11.1897 -2.5 3.84337
    endloop
  endfacet
  facet normal 0 -1 0
    outer loop
      vertex 18.75 -2.5 0
      vertex 11.1897 -2.5 3.84337
      vertex 11.1591 -2.5 3.68942
    endloop
  endfacet
  facet normal 0 -1 0
    outer loop
      vertex 18.75 -2.5 0
      vertex 11.1591 -2.5 3.68942
      vertex 11.1087 -2.5 3.54078
    endloop
  endfacet
  facet normal 0 -1 0
    outer loop
      vertex 18.75 -2.5 0
      vertex 11.1087 -2.5 3.54078
      vertex 11.0392 -2.5 3.4
    endloop
  endfacet
  facet normal 0 -1 0
    outer loop
      vertex 18.75 -2.5 0
      vertex 11.0392 -2.5 3.4
      vertex 10.952 -2.5 3.26949
    endloop
  endfacet
  facet normal 0 -1 0
    outer loop
      vertex 18.75 -2.5 0
      vertex 10.952 -2.5 3.26949
      vertex 10.8485 -2.5 3.15147
    endloop
  endfacet
  facet normal 0 -1 0
    outer loop
      vertex 18.75 -2.5 0
      vertex 10.8485 -2.5 3.15147
      vertex 10.7305 -2.5 3.04798
    endloop
  endfacet
  facet normal 0 -1 0
    outer loop
      vertex 18.75 -2.5 0
      vertex 10.7305 -2.5 3.04798
      vertex 10.6 -2.5 2.96077
    endloop
  endfacet
  facet normal 0 -1 0
    outer loop
      vertex 18.75 -2.5 0
      vertex 10 -2.5 2.8
      vertex 0 -2.5 0
    endloop
  endfacet
  facet normal 0 -1 0
    outer loop
      vertex 10 -2.5 2.8
      vertex 18.75 -2.5 0
      vertex 10.1566 -2.5 2.81027
    endloop
  endfacet
  facet normal 0 -1 0
    outer loop
      vertex 11.2 -2.5 4
      vertex 18.75 -2.5 0
      vertex 18.75 -2.5 8
    endloop
  endfacet
  facet normal 0 -1 0
    outer loop
      vertex 10.4592 -2.5 2.89134
      vertex 18.75 -2.5 0
      vertex 10.6 -2.5 2.96077
    endloop
  endfacet
  facet normal 0 -1 0
    outer loop
      vertex 10.3106 -2.5 2.84089
      vertex 18.75 -2.5 0
      vertex 10.4592 -2.5 2.89134
    endloop
  endfacet
  facet normal 0 -1 0
    outer loop
      vertex 10.1566 -2.5 2.81027
      vertex 18.75 -2.5 0
      vertex 10.3106 -2.5 2.84089
    endloop
  endfacet
  facet normal 0 -1 0
    outer loop
      vertex 56.25 -2.5 0
      vertex 93.75 -2.5 8
      vertex 56.25 -2.5 8
    endloop
  endfacet
  facet normal 0 -1 -0
    outer loop
      vertex 93.75 -2.5 8
      vertex 56.25 -2.5 0
      vertex 93.75 -2.5 0
    endloop
  endfacet
  facet normal 0 0 -1
    outer loop
      vertex 0 -1.3 6.8
      vertex 146 1.3 6.8
      vertex 146 -1.3 6.8
    endloop
  endfacet
  facet normal -0 0 -1
    outer loop
      vertex 146 1.3 6.8
      vertex 0 -1.3 6.8
      vertex 0 1.3 6.8
    endloop
  endfacet
  facet normal -0 0 1
    outer loop
      vertex 0 1.3 1.2
      vertex 146 -1.3 1.2
      vertex 146 1.3 1.2
    endloop
  endfacet
  facet normal 0 0 1
    outer loop
      vertex 146 -1.3 1.2
      vertex 0 1.3 1.2
      vertex 0 -1.3 1.2
    endloop
  endfacet
  facet normal 0 1 -0
    outer loop
      vertex 10.1566 -1.3 5.18973
      vertex 0 -1.3 6.8
      vertex 146 -1.3 6.8
    endloop
  endfacet
  facet normal 0 1 0
    outer loop
      vertex 0 -1.3 6.8
      vertex 10.1566 -1.3 5.18973
      vertex 10 -1.3 5.2
    endloop
  endfacet
  facet normal 0 1 0
    outer loop
      vertex 146 -1.3 6.8
      vertex 10.3106 -1.3 5.15911
      vertex 10.1566 -1.3 5.18973
    endloop
  endfacet
  facet normal 0 1 0
    outer loop
      vertex 146 -1.3 6.8
      vertex 10.4592 -1.3 5.10865
      vertex 10.3106 -1.3 5.15911
    endloop
  endfacet
  facet normal 0 1 0
    outer loop
      vertex 146 -1.3 6.8
      vertex 10.6 -1.3 5.03923
      vertex 10.4592 -1.3 5.10865
    endloop
  endfacet
  facet normal 0 1 0
    outer loop
      vertex 146 -1.3 6.8
      vertex 10.7305 -1.3 4.95202
      vertex 10.6 -1.3 5.03923
    endloop
  endfacet
  facet normal 0 1 0
    outer loop
      vertex 146 -1.3 6.8
      vertex 10.8485 -1.3 4.84853
      vertex 10.7305 -1.3 4.95202
    endloop
  endfacet
  facet normal 0 1 0
    outer loop
      vertex 146 -1.3 6.8
      vertex 10.952 -1.3 4.73051
      vertex 10.8485 -1.3 4.84853
    endloop
  endfacet
  facet normal 0 1 0
    outer loop
      vertex 146 -1.3 6.8
      vertex 11.0392 -1.3 4.6
      vertex 10.952 -1.3 4.73051
    endloop
  endfacet
  facet normal 0 1 0
    outer loop
      vertex 146 -1.3 6.8
      vertex 11.1087 -1.3 4.45922
      vertex 11.0392 -1.3 4.6
    endloop
  endfacet
  facet normal 0 1 0
    outer loop
      vertex 146 -1.3 6.8
      vertex 11.1591 -1.3 4.31058
      vertex 11.1087 -1.3 4.45922
    endloop
  endfacet
  facet normal 0 1 0
    outer loop
      vertex 146 -1.3 6.8
      vertex 11.1897 -1.3 4.15663
      vertex 11.1591 -1.3 4.31058
    endloop
  endfacet
  facet normal 0 1 0
    outer loop
      vertex 146 -1.3 6.8
      vertex 11.2 -1.3 4
      vertex 11.1897 -1.3 4.15663
    endloop
  endfacet
  facet normal 0 1 -0
    outer loop
      vertex 146 -1.3 1.2
      vertex 11.2 -1.3 4
      vertex 146 -1.3 6.8
    endloop
  endfacet
  facet normal 0 1 0
    outer loop
      vertex 11.2 -1.3 4
      vertex 146 -1.3 1.2
      vertex 11.1897 -1.3 3.84337
    endloop
  endfacet
  facet normal 0 1 0
    outer loop
      vertex 11.1897 -1.3 3.84337
      vertex 146 -1.3 1.2
      vertex 11.1591 -1.3 3.68942
    endloop
  endfacet
  facet normal 0 1 0
    outer loop
      vertex 11.1591 -1.3 3.68942
      vertex 146 -1.3 1.2
      vertex 11.1087 -1.3 3.54078
    endloop
  endfacet
  facet normal 0 1 0
    outer loop
      vertex 11.1087 -1.3 3.54078
      vertex 146 -1.3 1.2
      vertex 11.0392 -1.3 3.4
    endloop
  endfacet
  facet normal 0 1 0
    outer loop
      vertex 11.0392 -1.3 3.4
      vertex 146 -1.3 1.2
      vertex 10.952 -1.3 3.26949
    endloop
  endfacet
  facet normal 0 1 0
    outer loop
      vertex 10.952 -1.3 3.26949
      vertex 146 -1.3 1.2
      vertex 10.8485 -1.3 3.15147
    endloop
  endfacet
  facet normal 0 1 0
    outer loop
      vertex 10.8485 -1.3 3.15147
      vertex 146 -1.3 1.2
      vertex 10.7305 -1.3 3.04798
    endloop
  endfacet
  facet normal 0 1 0
    outer loop
      vertex 10.7305 -1.3 3.04798
      vertex 146 -1.3 1.2
      vertex 10.6 -1.3 2.96077
    endloop
  endfacet
  facet normal 0 1 0
    outer loop
      vertex 10.6 -1.3 2.96077
      vertex 146 -1.3 1.2
      vertex 10.4592 -1.3 2.89134
    endloop
  endfacet
  facet normal 0 1 0
    outer loop
      vertex 10.4592 -1.3 2.89134
      vertex 146 -1.3 1.2
      vertex 10.3106 -1.3 2.84089
    endloop
  endfacet
  facet normal 0 1 0
    outer loop
      vertex 10.3106 -1.3 2.84089
      vertex 146 -1.3 1.2
      vertex 10.1566 -1.3 2.81027
    endloop
  endfacet
  facet normal 0 1 0
    outer loop
      vertex 0 -1.3 1.2
      vertex 10.1566 -1.3 2.81027
      vertex 146 -1.3 1.2
    endloop
  endfacet
  facet normal 0 1 -0
    outer loop
      vertex 9.84337 -1.3 5.18973
      vertex 0 -1.3 6.8
      vertex 10 -1.3 5.2
    endloop
  endfacet
  facet normal 0 1 -0
    outer loop
      vertex 9.68942 -1.3 5.15911
      vertex 0 -1.3 6.8
      vertex 9.84337 -1.3 5.18973
    endloop
  endfacet
  facet normal 0 1 -0
    outer loop
      vertex 9.54078 -1.3 5.10865
      vertex 0 -1.3 6.8
      vertex 9.68942 -1.3 5.15911
    endloop
  endfacet
  facet normal 0 1 -0
    outer loop
      vertex 9.4 -1.3 5.03923
      vertex 0 -1.3 6.8
      vertex 9.54078 -1.3 5.10865
    endloop
  endfacet
  facet normal 0 1 -0
    outer loop
      vertex 9.26949 -1.3 4.95202
      vertex 0 -1.3 6.8
      vertex 9.4 -1.3 5.03923
    endloop
  endfacet
  facet normal 0 1 -0
    outer loop
      vertex 9.15147 -1.3 4.84853
      vertex 0 -1.3 6.8
      vertex 9.26949 -1.3 4.95202
    endloop
  endfacet
  facet normal 0 1 -0
    outer loop
      vertex 9.04798 -1.3 4.73051
      vertex 0 -1.3 6.8
      vertex 9.15147 -1.3 4.84853
    endloop
  endfacet
  facet normal 0 1 -0
    outer loop
      vertex 8.96077 -1.3 4.6
      vertex 0 -1.3 6.8
      vertex 9.04798 -1.3 4.73051
    endloop
  endfacet
  facet normal 0 1 -0
    outer loop
      vertex 8.89134 -1.3 4.45922
      vertex 0 -1.3 6.8
      vertex 8.96077 -1.3 4.6
    endloop
  endfacet
  facet normal 0 1 -0
    outer loop
      vertex 8.84089 -1.3 4.31058
      vertex 0 -1.3 6.8
      vertex 8.89134 -1.3 4.45922
    endloop
  endfacet
  facet normal 0 1 -0
    outer loop
      vertex 8.81027 -1.3 4.15663
      vertex 0 -1.3 6.8
      vertex 8.84089 -1.3 4.31058
    endloop
  endfacet
  facet normal 0 1 -0
    outer loop
      vertex 8.8 -1.3 4
      vertex 0 -1.3 6.8
      vertex 8.81027 -1.3 4.15663
    endloop
  endfacet
  facet normal 0 1 0
    outer loop
      vertex 0 -1.3 1.2
      vertex 8.8 -1.3 4
      vertex 8.81027 -1.3 3.84337
    endloop
  endfacet
  facet normal 0 1 0
    outer loop
      vertex 0 -1.3 1.2
      vertex 8.81027 -1.3 3.84337
      vertex 8.84089 -1.3 3.68942
    endloop
  endfacet
  facet normal 0 1 0
    outer loop
      vertex 0 -1.3 1.2
      vertex 8.84089 -1.3 3.68942
      vertex 8.89134 -1.3 3.54078
    endloop
  endfacet
  facet normal 0 1 0
    outer loop
      vertex 0 -1.3 1.2
      vertex 8.89134 -1.3 3.54078
      vertex 8.96077 -1.3 3.4
    endloop
  endfacet
  facet normal 0 1 0
    outer loop
      vertex 0 -1.3 1.2
      vertex 8.96077 -1.3 3.4
      vertex 9.04798 -1.3 3.26949
    endloop
  endfacet
  facet normal 0 1 0
    outer loop
      vertex 0 -1.3 1.2
      vertex 9.04798 -1.3 3.26949
      vertex 9.15147 -1.3 3.15147
    endloop
  endfacet
  facet normal 0 1 0
    outer loop
      vertex 0 -1.3 1.2
      vertex 9.15147 -1.3 3.15147
      vertex 9.26949 -1.3 3.04798
    endloop
  endfacet
  facet normal 0 1 0
    outer loop
      vertex 0 -1.3 1.2
      vertex 9.26949 -1.3 3.04798
      vertex 9.4 -1.3 2.96077
    endloop
  endfacet
  facet normal 0 1 0
    outer loop
      vertex 0 -1.3 1.2
      vertex 9.4 -1.3 2.96077
      vertex 9.54078 -1.3 2.89134
    endloop
  endfacet
  facet normal 0 1 0
    outer loop
      vertex 8.8 -1.3 4
      vertex 0 -1.3 1.2
      vertex 0 -1.3 6.8
    endloop
  endfacet
  facet normal 0 1 0
    outer loop
      vertex 9.68942 -1.3 2.84089
      vertex 0 -1.3 1.2
      vertex 9.54078 -1.3 2.89134
    endloop
  endfacet
  facet normal 0 1 0
    outer loop
      vertex 9.84337 -1.3 2.81027
      vertex 0 -1.3 1.2
      vertex 9.68942 -1.3 2.84089
    endloop
  endfacet
  facet normal 0 1 0
    outer loop
      vertex 10 -1.3 2.8
      vertex 0 -1.3 1.2
      vertex 9.84337 -1.3 2.81027
    endloop
  endfacet
  facet normal 0 1 0
    outer loop
      vertex 10.1566 -1.3 2.81027
      vertex 0 -1.3 1.2
      vertex 10 -1.3 2.8
    endloop
  endfacet
  facet normal 0 -1 0
    outer loop
      vertex 10.1566 1.3 5.18973
      vertex 0 1.3 6.8
      vertex 10 1.3 5.2
    endloop
  endfacet
  facet normal 0 -1 0
    outer loop
      vertex 0 1.3 6.8
      vertex 9.84337 1.3 5.18973
      vertex 10 1.3 5.2
    endloop
  endfacet
  facet normal 0 -1 0
    outer loop
      vertex 0 1.3 6.8
      vertex 9.68942 1.3 5.15911
      vertex 9.84337 1.3 5.18973
    endloop
  endfacet
  facet normal 0 -1 0
    outer loop
      vertex 0 1.3 6.8
      vertex 9.54078 1.3 5.10865
      vertex 9.68942 1.3 5.15911
    endloop
  endfacet
  facet normal 0 -1 0
    outer loop
      vertex 0 1.3 6.8
      vertex 9.4 1.3 5.03923
      vertex 9.54078 1.3 5.10865
    endloop
  endfacet
  facet normal 0 -1 0
    outer loop
      vertex 0 1.3 6.8
      vertex 9.26949 1.3 4.95202
      vertex 9.4 1.3 5.03923
    endloop
  endfacet
  facet normal 0 -1 0
    outer loop
      vertex 0 1.3 6.8
      vertex 9.15147 1.3 4.84853
      vertex 9.26949 1.3 4.95202
    endloop
  endfacet
  facet normal 0 -1 0
    outer loop
      vertex 0 1.3 6.8
      vertex 9.04798 1.3 4.73051
      vertex 9.15147 1.3 4.84853
    endloop
  endfacet
  facet normal 0 -1 0
    outer loop
      vertex 0 1.3 6.8
      vertex 8.96077 1.3 4.6
      vertex 9.04798 1.3 4.73051
    endloop
  endfacet
  facet normal 0 -1 0
    outer loop
      vertex 0 1.3 6.8
      vertex 8.89134 1.3 4.45922
      vertex 8.96077 1.3 4.6
    endloop
  endfacet
  facet normal 0 -1 0
    outer loop
      vertex 0 1.3 6.8
      vertex 8.84089 1.3 4.31058
      vertex 8.89134 1.3 4.45922
    endloop
  endfacet
  facet normal 0 -1 0
    outer loop
      vertex 0 1.3 6.8
      vertex 8.81027 1.3 4.15663
      vertex 8.84089 1.3 4.31058
    endloop
  endfacet
  facet normal 0 -1 0
    outer loop
      vertex 0 1.3 6.8
      vertex 8.8 1.3 4
      vertex 8.81027 1.3 4.15663
    endloop
  endfacet
  facet normal 0 -1 0
    outer loop
      vertex 0 1.3 1.2
      vertex 8.8 1.3 4
      vertex 0 1.3 6.8
    endloop
  endfacet
  facet normal 0 -1 -0
    outer loop
      vertex 8.8 1.3 4
      vertex 0 1.3 1.2
      vertex 8.81027 1.3 3.84337
    endloop
  endfacet
  facet normal 0 -1 -0
    outer loop
      vertex 8.81027 1.3 3.84337
      vertex 0 1.3 1.2
      vertex 8.84089 1.3 3.68942
    endloop
  endfacet
  facet normal 0 -1 -0
    outer loop
      vertex 8.84089 1.3 3.68942
      vertex 0 1.3 1.2
      vertex 8.89134 1.3 3.54078
    endloop
  endfacet
  facet normal 0 -1 -0
    outer loop
      vertex 8.89134 1.3 3.54078
      vertex 0 1.3 1.2
      vertex 8.96077 1.3 3.4
    endloop
  endfacet
  facet normal 0 -1 -0
    outer loop
      vertex 8.96077 1.3 3.4
      vertex 0 1.3 1.2
      vertex 9.04798 1.3 3.26949
    endloop
  endfacet
  facet normal 0 -1 -0
    outer loop
      vertex 9.04798 1.3 3.26949
      vertex 0 1.3 1.2
      vertex 9.15147 1.3 3.15147
    endloop
  endfacet
  facet normal 0 -1 -0
    outer loop
      vertex 9.15147 1.3 3.15147
      vertex 0 1.3 1.2
      vertex 9.26949 1.3 3.04798
    endloop
  endfacet
  facet normal 0 -1 -0
    outer loop
      vertex 9.26949 1.3 3.04798
      vertex 0 1.3 1.2
      vertex 9.4 1.3 2.96077
    endloop
  endfacet
  facet normal 0 -1 -0
    outer loop
      vertex 9.84337 1.3 2.81027
      vertex 0 1.3 1.2
      vertex 10 1.3 2.8
    endloop
  endfacet
  facet normal 0 -1 -0
    outer loop
      vertex 9.68942 1.3 2.84089
      vertex 0 1.3 1.2
      vertex 9.84337 1.3 2.81027
    endloop
  endfacet
  facet normal 0 -1 -0
    outer loop
      vertex 9.54078 1.3 2.89134
      vertex 0 1.3 1.2
      vertex 9.68942 1.3 2.84089
    endloop
  endfacet
  facet normal 0 -1 -0
    outer loop
      vertex 9.4 1.3 2.96077
      vertex 0 1.3 1.2
      vertex 9.54078 1.3 2.89134
    endloop
  endfacet
  facet normal 0 -1 0
    outer loop
      vertex 0 1.3 6.8
      vertex 10.1566 1.3 5.18973
      vertex 146 1.3 6.8
    endloop
  endfacet
  facet normal 0 -1 0
    outer loop
      vertex 10.3106 1.3 5.15911
      vertex 146 1.3 6.8
      vertex 10.1566 1.3 5.18973
    endloop
  endfacet
  facet normal 0 -1 0
    outer loop
      vertex 10.4592 1.3 5.10865
      vertex 146 1.3 6.8
      vertex 10.3106 1.3 5.15911
    endloop
  endfacet
  facet normal 0 -1 0
    outer loop
      vertex 10.6 1.3 5.03923
      vertex 146 1.3 6.8
      vertex 10.4592 1.3 5.10865
    endloop
  endfacet
  facet normal 0 -1 0
    outer loop
      vertex 10.7305 1.3 4.95202
      vertex 146 1.3 6.8
      vertex 10.6 1.3 5.03923
    endloop
  endfacet
  facet normal 0 -1 0
    outer loop
      vertex 10.8485 1.3 4.84853
      vertex 146 1.3 6.8
      vertex 10.7305 1.3 4.95202
    endloop
  endfacet
  facet normal 0 -1 0
    outer loop
      vertex 10.952 1.3 4.73051
      vertex 146 1.3 6.8
      vertex 10.8485 1.3 4.84853
    endloop
  endfacet
  facet normal 0 -1 0
    outer loop
      vertex 11.0392 1.3 4.6
      vertex 146 1.3 6.8
      vertex 10.952 1.3 4.73051
    endloop
  endfacet
  facet normal 0 -1 0
    outer loop
      vertex 11.1087 1.3 4.45922
      vertex 146 1.3 6.8
      vertex 11.0392 1.3 4.6
    endloop
  endfacet
  facet normal 0 -1 0
    outer loop
      vertex 11.1591 1.3 4.31058
      vertex 146 1.3 6.8
      vertex 11.1087 1.3 4.45922
    endloop
  endfacet
  facet normal 0 -1 0
    outer loop
      vertex 11.1897 1.3 4.15663
      vertex 146 1.3 6.8
      vertex 11.1591 1.3 4.31058
    endloop
  endfacet
  facet normal 0 -1 0
    outer loop
      vertex 11.2 1.3 4
      vertex 146 1.3 6.8
      vertex 11.1897 1.3 4.15663
    endloop
  endfacet
  facet normal 0 -1 0
    outer loop
      vertex 146 1.3 1.2
      vertex 11.2 1.3 4
      vertex 11.1897 1.3 3.84337
    endloop
  endfacet
  facet normal 0 -1 0
    outer loop
      vertex 146 1.3 1.2
      vertex 11.1897 1.3 3.84337
      vertex 11.1591 1.3 3.68942
    endloop
  endfacet
  facet normal 0 -1 0
    outer loop
      vertex 146 1.3 1.2
      vertex 11.1591 1.3 3.68942
      vertex 11.1087 1.3 3.54078
    endloop
  endfacet
  facet normal 0 -1 0
    outer loop
      vertex 146 1.3 1.2
      vertex 11.1087 1.3 3.54078
      vertex 11.0392 1.3 3.4
    endloop
  endfacet
  facet normal 0 -1 0
    outer loop
      vertex 146 1.3 1.2
      vertex 11.0392 1.3 3.4
      vertex 10.952 1.3 3.26949
    endloop
  endfacet
  facet normal 0 -1 0
    outer loop
      vertex 146 1.3 1.2
      vertex 10.952 1.3 3.26949
      vertex 10.8485 1.3 3.15147
    endloop
  endfacet
  facet normal 0 -1 0
    outer loop
      vertex 146 1.3 1.2
      vertex 10.8485 1.3 3.15147
      vertex 10.7305 1.3 3.04798
    endloop
  endfacet
  facet normal 0 -1 0
    outer loop
      vertex 146 1.3 1.2
      vertex 10.7305 1.3 3.04798
      vertex 10.6 1.3 2.96077
    endloop
  endfacet
  facet normal 0 -1 0
    outer loop
      vertex 146 1.3 1.2
      vertex 10.6 1.3 2.96077
      vertex 10.4592 1.3 2.89134
    endloop
  endfacet
  facet normal 0 -1 0
    outer loop
      vertex 146 1.3 1.2
      vertex 10.4592 1.3 2.89134
      vertex 10.3106 1.3 2.84089
    endloop
  endfacet
  facet normal 0 -1 0
    outer loop
      vertex 146 1.3 1.2
      vertex 10.3106 1.3 2.84089
      vertex 10.1566 1.3 2.81027
    endloop
  endfacet
  facet normal 0 -1 0
    outer loop
      vertex 0 1.3 1.2
      vertex 10.1566 1.3 2.81027
      vertex 10 1.3 2.8
    endloop
  endfacet
  facet normal 0 -1 -0
    outer loop
      vertex 10.1566 1.3 2.81027
      vertex 0 1.3 1.2
      vertex 146 1.3 1.2
    endloop
  endfacet
  facet normal 0 -1 0
    outer loop
      vertex 11.2 1.3 4
      vertex 146 1.3 1.2
      vertex 146 1.3 6.8
    endloop
  endfacet
  facet normal 1 -0 0
    outer loop
      vertex 150 -2.5 8
      vertex 150 2.5 0
      vertex 150 2.5 8
    endloop
  endfacet
  facet normal 1 0 0
    outer loop
      vertex 150 2.5 0
      vertex 150 -2.5 8
      vertex 150 -2.5 0
    endloop
  endfacet
  facet normal 1 -0 0
    outer loop
      vertex 18.75 -2.5 8
      vertex 18.75 -2.1 0
      vertex 18.75 -2.1 8
    endloop
  endfacet
  facet normal 1 0 0
    outer loop
      vertex 18.75 -2.1 0
      vertex 18.75 -2.5 8
      vertex 18.75 -2.5 0
    endloop
  endfacet
  facet normal -1 0 0
    outer loop
      vertex 56.25 -2.5 0
      vertex 56.25 -2.1 8
      vertex 56.25 -2.1 0
    endloop
  endfacet
  facet normal -1 -0 0
    outer loop
      vertex 56.25 -2.1 8
      vertex 56.25 -2.5 0
      vertex 56.25 -2.5 8
    endloop
  endfacet
  facet normal 0 -1 0
    outer loop
      vertex 18.75 -2.1 0
      vertex 56.25 -2.1 8
      vertex 18.75 -2.1 8
    endloop
  endfacet
  facet normal 0 -1 -0
    outer loop
      vertex 56.25 -2.1 8
      vertex 18.75 -2.1 0
      vertex 56.25 -2.1 0
    endloop
  endfacet
  facet normal 1 -0 0
    outer loop
      vertex 18.75 2.1 8
      vertex 18.75 2.5 0
      vertex 18.75 2.5 8
    endloop
  endfacet
  facet normal 1 0 0
    outer loop
      vertex 18.75 2.5 0
      vertex 18.75 2.1 8
      vertex 18.75 2.1 0
    endloop
  endfacet
  facet normal -1 0 0
    outer loop
      vertex 56.25 2.1 0
      vertex 56.25 2.5 8
      vertex 56.25 2.5 0
    endloop
  endfacet
  facet normal -1 -0 0
    outer loop
      vertex 56.25 2.5 8
      vertex 56.25 2.1 0
      vertex 56.25 2.1 8
    endloop
  endfacet
  facet normal 0 1 -0
    outer loop
      vertex 56.25 2.1 0
      vertex 18.75 2.1 8
      vertex 56.25 2.1 8
    endloop
  endfacet
  facet normal 0 1 0
    outer loop
      vertex 18.75 2.1 8
      vertex 56.25 2.1 0
      vertex 18.75 2.1 0
    endloop
  endfacet
  facet normal 1 -0 0
    outer loop
      vertex 93.75 -2.5 8
      vertex 93.75 -2.1 0
      vertex 93.75 -2.1 8
    endloop
  endfacet
  facet normal 1 0 0
    outer loop
      vertex 93.75 -2.1 0
      vertex 93.75 -2.5 8
      vertex 93.75 -2.5 0
    endloop
  endfacet
  facet normal -1 0 0
    outer loop
      vertex 131.25 -2.5 0
      vertex 131.25 -2.1 8
      vertex 131.25 -2.1 0
    endloop
  endfacet
  facet normal -1 -0 0
    outer loop
      vertex 131.25 -2.1 8
      vertex 131.25 -2.5 0
      vertex 131.25 -2.5 8
    endloop
  endfacet
  facet normal 0 -1 0
    outer loop
      vertex 93.75 -2.1 0
      vertex 131.25 -2.1 8
      vertex 93.75 -2.1 8
    endloop
  endfacet
  facet normal 0 -1 -0
    outer loop
      vertex 131.25 -2.1 8
      vertex 93.75 -2.1 0
      vertex 131.25 -2.1 0
    endloop
  endfacet
  facet normal 1 -0 0
    outer loop
      vertex 93.75 2.1 8
      vertex 93.75 2.5 0
      vertex 93.75 2.5 8
    endloop
  endfacet
  facet normal 1 0 0
    outer loop
      vertex 93.75 2.5 0
      vertex 93.75 2.1 8
      vertex 93.75 2.1 0
    endloop
  endfacet
  facet normal -1 0 0
    outer loop
      vertex 131.25 2.1 0
      vertex 131.25 2.5 8
      vertex 131.25 2.5 0
    endloop
  endfacet
  facet normal -1 -0 0
    outer loop
      vertex 131.25 2.5 8
      vertex 131.25 2.1 0
      vertex 131.25 2.1 8
    endloop
  endfacet
  facet normal 0 1 -0
    outer loop
      vertex 131.25 2.1 0
      vertex 93.75 2.1 8
      vertex 131.25 2.1 8
    endloop
  endfacet
  facet normal 0 1 0
    outer loop
      vertex 93.75 2.1 8
      vertex 131.25 2.1 0
      vertex 93.75 2.1 0
    endloop
  endfacet
  facet normal -0.997845 0 -0.0656183
    outer loop
      vertex 11.2 1.3 4
      vertex 11.1897 2.5 4.15663
      vertex 11.2 2.5 4
    endloop
  endfacet
  facet normal -0.997845 -0 -0.0656183
    outer loop
      vertex 11.1897 2.5 4.15663
      vertex 11.2 1.3 4
      vertex 11.1897 1.3 4.15663
    endloop
  endfacet
  facet normal -0.997845 0 -0.0656183
    outer loop
      vertex 11.2 -2.5 4
      vertex 11.1897 -1.3 4.15663
      vertex 11.2 -1.3 4
    endloop
  endfacet
  facet normal -0.997845 -0 -0.0656183
    outer loop
      vertex 11.1897 -1.3 4.15663
      vertex 11.2 -2.5 4
      vertex 11.1897 -2.5 4.15663
    endloop
  endfacet
  facet normal -0.980813 0 -0.194952
    outer loop
      vertex 11.1897 1.3 4.15663
      vertex 11.1591 2.5 4.31058
      vertex 11.1897 2.5 4.15663
    endloop
  endfacet
  facet normal -0.980813 -0 -0.194952
    outer loop
      vertex 11.1591 2.5 4.31058
      vertex 11.1897 1.3 4.15663
      vertex 11.1591 1.3 4.31058
    endloop
  endfacet
  facet normal -0.980813 0 -0.194952
    outer loop
      vertex 11.1897 -2.5 4.15663
      vertex 11.1591 -1.3 4.31058
      vertex 11.1897 -1.3 4.15663
    endloop
  endfacet
  facet normal -0.980813 -0 -0.194952
    outer loop
      vertex 11.1591 -1.3 4.31058
      vertex 11.1897 -2.5 4.15663
      vertex 11.1591 -2.5 4.31058
    endloop
  endfacet
  facet normal 0.065428 0 -0.997857
    outer loop
      vertex 9.84337 1.3 5.18973
      vertex 10 2.5 5.2
      vertex 10 1.3 5.2
    endloop
  endfacet
  facet normal 0.065428 0 -0.997857
    outer loop
      vertex 10 2.5 5.2
      vertex 9.84337 1.3 5.18973
      vertex 9.84337 2.5 5.18973
    endloop
  endfacet
  facet normal 0.065428 0 -0.997857
    outer loop
      vertex 9.84337 -2.5 5.18973
      vertex 10 -1.3 5.2
      vertex 10 -2.5 5.2
    endloop
  endfacet
  facet normal 0.065428 0 -0.997857
    outer loop
      vertex 10 -1.3 5.2
      vertex 9.84337 -2.5 5.18973
      vertex 9.84337 -1.3 5.18973
    endloop
  endfacet
  facet normal -0.65937 0 -0.751818
    outer loop
      vertex 10.7305 1.3 4.95202
      vertex 10.8485 2.5 4.84853
      vertex 10.8485 1.3 4.84853
    endloop
  endfacet
  facet normal -0.65937 0 -0.751818
    outer loop
      vertex 10.8485 2.5 4.84853
      vertex 10.7305 1.3 4.95202
      vertex 10.7305 2.5 4.95202
    endloop
  endfacet
  facet normal -0.65937 0 -0.751818
    outer loop
      vertex 10.7305 -2.5 4.95202
      vertex 10.8485 -1.3 4.84853
      vertex 10.8485 -2.5 4.84853
    endloop
  endfacet
  facet normal -0.65937 0 -0.751818
    outer loop
      vertex 10.8485 -1.3 4.84853
      vertex 10.7305 -2.5 4.95202
      vertex 10.7305 -1.3 4.95202
    endloop
  endfacet
  facet normal 0.751874 0 -0.659307
    outer loop
      vertex 9.15147 1.3 4.84853
      vertex 9.04798 2.5 4.73051
      vertex 9.15147 2.5 4.84853
    endloop
  endfacet
  facet normal 0.751874 0 -0.659307
    outer loop
      vertex 9.04798 2.5 4.73051
      vertex 9.15147 1.3 4.84853
      vertex 9.04798 1.3 4.73051
    endloop
  endfacet
  facet normal 0.751874 0 -0.659307
    outer loop
      vertex 9.15147 -2.5 4.84853
      vertex 9.04798 -1.3 4.73051
      vertex 9.15147 -1.3 4.84853
    endloop
  endfacet
  facet normal 0.751874 0 -0.659307
    outer loop
      vertex 9.04798 -1.3 4.73051
      vertex 9.15147 -2.5 4.84853
      vertex 9.04798 -2.5 4.73051
    endloop
  endfacet
  facet normal 0.442263 0 -0.896885
    outer loop
      vertex 9.4 1.3 5.03923
      vertex 9.54078 2.5 5.10865
      vertex 9.54078 1.3 5.10865
    endloop
  endfacet
  facet normal 0.442263 0 -0.896885
    outer loop
      vertex 9.54078 2.5 5.10865
      vertex 9.4 1.3 5.03923
      vertex 9.4 2.5 5.03923
    endloop
  endfacet
  facet normal 0.442263 0 -0.896885
    outer loop
      vertex 9.4 -2.5 5.03923
      vertex 9.54078 -1.3 5.10865
      vertex 9.54078 -2.5 5.10865
    endloop
  endfacet
  facet normal 0.442263 0 -0.896885
    outer loop
      vertex 9.54078 -1.3 5.10865
      vertex 9.4 -2.5 5.03923
      vertex 9.4 -1.3 5.03923
    endloop
  endfacet
  facet normal -0.896683 0 -0.442673
    outer loop
      vertex 11.1087 1.3 4.45922
      vertex 11.0392 2.5 4.6
      vertex 11.1087 2.5 4.45922
    endloop
  endfacet
  facet normal -0.896683 -0 -0.442673
    outer loop
      vertex 11.0392 2.5 4.6
      vertex 11.1087 1.3 4.45922
      vertex 11.0392 1.3 4.6
    endloop
  endfacet
  facet normal -0.896683 0 -0.442673
    outer loop
      vertex 11.1087 -2.5 4.45922
      vertex 11.0392 -1.3 4.6
      vertex 11.1087 -1.3 4.45922
    endloop
  endfacet
  facet normal -0.896683 -0 -0.442673
    outer loop
      vertex 11.0392 -1.3 4.6
      vertex 11.1087 -2.5 4.45922
      vertex 11.0392 -2.5 4.6
    endloop
  endfacet
  facet normal -0.321537 0 -0.946897
    outer loop
      vertex 10.3106 1.3 5.15911
      vertex 10.4592 2.5 5.10865
      vertex 10.4592 1.3 5.10865
    endloop
  endfacet
  facet normal -0.321537 0 -0.946897
    outer loop
      vertex 10.4592 2.5 5.10865
      vertex 10.3106 1.3 5.15911
      vertex 10.3106 2.5 5.15911
    endloop
  endfacet
  facet normal -0.321537 0 -0.946897
    outer loop
      vertex 10.3106 -2.5 5.15911
      vertex 10.4592 -1.3 5.10865
      vertex 10.4592 -2.5 5.10865
    endloop
  endfacet
  facet normal -0.321537 0 -0.946897
    outer loop
      vertex 10.4592 -1.3 5.10865
      vertex 10.3106 -2.5 5.15911
      vertex 10.3106 -1.3 5.15911
    endloop
  endfacet
  facet normal 0.946943 0 -0.321402
    outer loop
      vertex 8.89134 1.3 4.45922
      vertex 8.84089 2.5 4.31058
      vertex 8.89134 2.5 4.45922
    endloop
  endfacet
  facet normal 0.946943 0 -0.321402
    outer loop
      vertex 8.84089 2.5 4.31058
      vertex 8.89134 1.3 4.45922
      vertex 8.84089 1.3 4.31058
    endloop
  endfacet
  facet normal 0.946943 0 -0.321402
    outer loop
      vertex 8.89134 -2.5 4.45922
      vertex 8.84089 -1.3 4.31058
      vertex 8.89134 -1.3 4.45922
    endloop
  endfacet
  facet normal 0.946943 0 -0.321402
    outer loop
      vertex 8.84089 -1.3 4.31058
      vertex 8.89134 -2.5 4.45922
      vertex 8.84089 -2.5 4.31058
    endloop
  endfacet
  facet normal 0.89686 0 -0.442314
    outer loop
      vertex 8.96077 1.3 4.6
      vertex 8.89134 2.5 4.45922
      vertex 8.96077 2.5 4.6
    endloop
  endfacet
  facet normal 0.89686 0 -0.442314
    outer loop
      vertex 8.89134 2.5 4.45922
      vertex 8.96077 1.3 4.6
      vertex 8.89134 1.3 4.45922
    endloop
  endfacet
  facet normal 0.89686 0 -0.442314
    outer loop
      vertex 8.96077 -2.5 4.6
      vertex 8.89134 -1.3 4.45922
      vertex 8.96077 -1.3 4.6
    endloop
  endfacet
  facet normal 0.89686 0 -0.442314
    outer loop
      vertex 8.89134 -1.3 4.45922
      vertex 8.96077 -2.5 4.6
      vertex 8.89134 -2.5 4.45922
    endloop
  endfacet
  facet normal 0.997857 -0 0.065428
    outer loop
      vertex 8.8 1.3 4
      vertex 8.81027 2.5 3.84337
      vertex 8.8 2.5 4
    endloop
  endfacet
  facet normal 0.997857 0 0.065428
    outer loop
      vertex 8.81027 2.5 3.84337
      vertex 8.8 1.3 4
      vertex 8.81027 1.3 3.84337
    endloop
  endfacet
  facet normal 0.997857 -0 0.065428
    outer loop
      vertex 8.8 -2.5 4
      vertex 8.81027 -1.3 3.84337
      vertex 8.8 -1.3 4
    endloop
  endfacet
  facet normal 0.997857 0 0.065428
    outer loop
      vertex 8.81027 -1.3 3.84337
      vertex 8.8 -2.5 4
      vertex 8.81027 -2.5 3.84337
    endloop
  endfacet
  facet normal 0.659307 0 -0.751874
    outer loop
      vertex 9.15147 1.3 4.84853
      vertex 9.26949 2.5 4.95202
      vertex 9.26949 1.3 4.95202
    endloop
  endfacet
  facet normal 0.659307 0 -0.751874
    outer loop
      vertex 9.26949 2.5 4.95202
      vertex 9.15147 1.3 4.84853
      vertex 9.15147 2.5 4.84853
    endloop
  endfacet
  facet normal 0.659307 0 -0.751874
    outer loop
      vertex 9.15147 -2.5 4.84853
      vertex 9.26949 -1.3 4.95202
      vertex 9.26949 -2.5 4.95202
    endloop
  endfacet
  facet normal 0.659307 0 -0.751874
    outer loop
      vertex 9.26949 -1.3 4.95202
      vertex 9.15147 -2.5 4.84853
      vertex 9.15147 -1.3 4.84853
    endloop
  endfacet
  facet normal -0.751842 0 0.659343
    outer loop
      vertex 10.8485 1.3 3.15147
      vertex 10.952 2.5 3.26949
      vertex 10.8485 2.5 3.15147
    endloop
  endfacet
  facet normal -0.751842 0 0.659343
    outer loop
      vertex 10.952 2.5 3.26949
      vertex 10.8485 1.3 3.15147
      vertex 10.952 1.3 3.26949
    endloop
  endfacet
  facet normal -0.751842 0 0.659343
    outer loop
      vertex 10.8485 -2.5 3.15147
      vertex 10.952 -1.3 3.26949
      vertex 10.8485 -1.3 3.15147
    endloop
  endfacet
  facet normal -0.751842 0 0.659343
    outer loop
      vertex 10.952 -1.3 3.26949
      vertex 10.8485 -2.5 3.15147
      vertex 10.952 -2.5 3.26949
    endloop
  endfacet
  facet normal -0.94704 0 0.321117
    outer loop
      vertex 11.1087 1.3 3.54078
      vertex 11.1591 2.5 3.68942
      vertex 11.1087 2.5 3.54078
    endloop
  endfacet
  facet normal -0.94704 0 0.321117
    outer loop
      vertex 11.1591 2.5 3.68942
      vertex 11.1087 1.3 3.54078
      vertex 11.1591 1.3 3.68942
    endloop
  endfacet
  facet normal -0.94704 0 0.321117
    outer loop
      vertex 11.1087 -2.5 3.54078
      vertex 11.1591 -1.3 3.68942
      vertex 11.1087 -1.3 3.54078
    endloop
  endfacet
  facet normal -0.94704 0 0.321117
    outer loop
      vertex 11.1591 -1.3 3.68942
      vertex 11.1087 -2.5 3.54078
      vertex 11.1591 -2.5 3.68942
    endloop
  endfacet
  facet normal 0.89686 -0 0.442314
    outer loop
      vertex 8.89134 1.3 3.54078
      vertex 8.96077 2.5 3.4
      vertex 8.89134 2.5 3.54078
    endloop
  endfacet
  facet normal 0.89686 0 0.442314
    outer loop
      vertex 8.96077 2.5 3.4
      vertex 8.89134 1.3 3.54078
      vertex 8.96077 1.3 3.4
    endloop
  endfacet
  facet normal 0.89686 -0 0.442314
    outer loop
      vertex 8.89134 -2.5 3.54078
      vertex 8.96077 -1.3 3.4
      vertex 8.89134 -1.3 3.54078
    endloop
  endfacet
  facet normal 0.89686 0 0.442314
    outer loop
      vertex 8.96077 -1.3 3.4
      vertex 8.89134 -2.5 3.54078
      vertex 8.96077 -2.5 3.4
    endloop
  endfacet
  facet normal -0.195014 0 0.980801
    outer loop
      vertex 10.1566 2.5 2.81027
      vertex 10.3106 1.3 2.84089
      vertex 10.3106 2.5 2.84089
    endloop
  endfacet
  facet normal -0.195014 0 0.980801
    outer loop
      vertex 10.3106 1.3 2.84089
      vertex 10.1566 2.5 2.81027
      vertex 10.1566 1.3 2.81027
    endloop
  endfacet
  facet normal -0.195014 0 0.980801
    outer loop
      vertex 10.1566 -1.3 2.81027
      vertex 10.3106 -2.5 2.84089
      vertex 10.3106 -1.3 2.84089
    endloop
  endfacet
  facet normal -0.195014 0 0.980801
    outer loop
      vertex 10.3106 -2.5 2.84089
      vertex 10.1566 -1.3 2.81027
      vertex 10.1566 -2.5 2.81027
    endloop
  endfacet
  facet normal -0.94704 0 -0.321117
    outer loop
      vertex 11.1591 1.3 4.31058
      vertex 11.1087 2.5 4.45922
      vertex 11.1591 2.5 4.31058
    endloop
  endfacet
  facet normal -0.94704 -0 -0.321117
    outer loop
      vertex 11.1087 2.5 4.45922
      vertex 11.1591 1.3 4.31058
      vertex 11.1087 1.3 4.45922
    endloop
  endfacet
  facet normal -0.94704 0 -0.321117
    outer loop
      vertex 11.1591 -2.5 4.31058
      vertex 11.1087 -1.3 4.45922
      vertex 11.1591 -1.3 4.31058
    endloop
  endfacet
  facet normal -0.94704 -0 -0.321117
    outer loop
      vertex 11.1087 -1.3 4.45922
      vertex 11.1591 -2.5 4.31058
      vertex 11.1087 -2.5 4.45922
    endloop
  endfacet
  facet normal -0.751842 0 -0.659343
    outer loop
      vertex 10.952 1.3 4.73051
      vertex 10.8485 2.5 4.84853
      vertex 10.952 2.5 4.73051
    endloop
  endfacet
  facet normal -0.751842 -0 -0.659343
    outer loop
      vertex 10.8485 2.5 4.84853
      vertex 10.952 1.3 4.73051
      vertex 10.8485 1.3 4.84853
    endloop
  endfacet
  facet normal -0.751842 0 -0.659343
    outer loop
      vertex 10.952 -2.5 4.73051
      vertex 10.8485 -1.3 4.84853
      vertex 10.952 -1.3 4.73051
    endloop
  endfacet
  facet normal -0.751842 -0 -0.659343
    outer loop
      vertex 10.8485 -1.3 4.84853
      vertex 10.952 -2.5 4.73051
      vertex 10.8485 -2.5 4.84853
    endloop
  endfacet
  facet normal -0.831481 0 -0.555553
    outer loop
      vertex 11.0392 1.3 4.6
      vertex 10.952 2.5 4.73051
      vertex 11.0392 2.5 4.6
    endloop
  endfacet
  facet normal -0.831481 -0 -0.555553
    outer loop
      vertex 10.952 2.5 4.73051
      vertex 11.0392 1.3 4.6
      vertex 10.952 1.3 4.73051
    endloop
  endfacet
  facet normal -0.831481 0 -0.555553
    outer loop
      vertex 11.0392 -2.5 4.6
      vertex 10.952 -1.3 4.73051
      vertex 11.0392 -1.3 4.6
    endloop
  endfacet
  facet normal -0.831481 -0 -0.555553
    outer loop
      vertex 10.952 -1.3 4.73051
      vertex 11.0392 -2.5 4.6
      vertex 10.952 -2.5 4.73051
    endloop
  endfacet
  facet normal -0.195014 0 -0.980801
    outer loop
      vertex 10.1566 1.3 5.18973
      vertex 10.3106 2.5 5.15911
      vertex 10.3106 1.3 5.15911
    endloop
  endfacet
  facet normal -0.195014 0 -0.980801
    outer loop
      vertex 10.3106 2.5 5.15911
      vertex 10.1566 1.3 5.18973
      vertex 10.1566 2.5 5.18973
    endloop
  endfacet
  facet normal -0.195014 0 -0.980801
    outer loop
      vertex 10.1566 -2.5 5.18973
      vertex 10.3106 -1.3 5.15911
      vertex 10.3106 -2.5 5.15911
    endloop
  endfacet
  facet normal -0.195014 0 -0.980801
    outer loop
      vertex 10.3106 -1.3 5.15911
      vertex 10.1566 -2.5 5.18973
      vertex 10.1566 -1.3 5.18973
    endloop
  endfacet
  facet normal -0.0654405 0 -0.997856
    outer loop
      vertex 10 1.3 5.2
      vertex 10.1566 2.5 5.18973
      vertex 10.1566 1.3 5.18973
    endloop
  endfacet
  facet normal -0.0654405 0 -0.997856
    outer loop
      vertex 10.1566 2.5 5.18973
      vertex 10 1.3 5.2
      vertex 10 2.5 5.2
    endloop
  endfacet
  facet normal -0.0654405 0 -0.997856
    outer loop
      vertex 10 -2.5 5.2
      vertex 10.1566 -1.3 5.18973
      vertex 10.1566 -2.5 5.18973
    endloop
  endfacet
  facet normal -0.0654405 0 -0.997856
    outer loop
      vertex 10.1566 -1.3 5.18973
      vertex 10 -2.5 5.2
      vertex 10 -1.3 5.2
    endloop
  endfacet
  facet normal 0.980788 0 -0.195075
    outer loop
      vertex 8.84089 1.3 4.31058
      vertex 8.81027 2.5 4.15663
      vertex 8.84089 2.5 4.31058
    endloop
  endfacet
  facet normal 0.980788 0 -0.195075
    outer loop
      vertex 8.81027 2.5 4.15663
      vertex 8.84089 1.3 4.31058
      vertex 8.81027 1.3 4.15663
    endloop
  endfacet
  facet normal 0.980788 0 -0.195075
    outer loop
      vertex 8.84089 -2.5 4.31058
      vertex 8.81027 -1.3 4.15663
      vertex 8.84089 -1.3 4.31058
    endloop
  endfacet
  facet normal 0.980788 0 -0.195075
    outer loop
      vertex 8.81027 -1.3 4.15663
      vertex 8.84089 -2.5 4.31058
      vertex 8.81027 -2.5 4.15663
    endloop
  endfacet
  facet normal -0.980813 0 0.194952
    outer loop
      vertex 11.1591 1.3 3.68942
      vertex 11.1897 2.5 3.84337
      vertex 11.1591 2.5 3.68942
    endloop
  endfacet
  facet normal -0.980813 0 0.194952
    outer loop
      vertex 11.1897 2.5 3.84337
      vertex 11.1591 1.3 3.68942
      vertex 11.1897 1.3 3.84337
    endloop
  endfacet
  facet normal -0.980813 0 0.194952
    outer loop
      vertex 11.1591 -2.5 3.68942
      vertex 11.1897 -1.3 3.84337
      vertex 11.1591 -1.3 3.68942
    endloop
  endfacet
  facet normal -0.980813 0 0.194952
    outer loop
      vertex 11.1897 -1.3 3.84337
      vertex 11.1591 -2.5 3.68942
      vertex 11.1897 -2.5 3.84337
    endloop
  endfacet
  facet normal 0.065428 0 0.997857
    outer loop
      vertex 9.84337 2.5 2.81027
      vertex 10 1.3 2.8
      vertex 10 2.5 2.8
    endloop
  endfacet
  facet normal 0.065428 0 0.997857
    outer loop
      vertex 10 1.3 2.8
      vertex 9.84337 2.5 2.81027
      vertex 9.84337 1.3 2.81027
    endloop
  endfacet
  facet normal 0.065428 0 0.997857
    outer loop
      vertex 9.84337 -1.3 2.81027
      vertex 10 -2.5 2.8
      vertex 10 -1.3 2.8
    endloop
  endfacet
  facet normal 0.065428 0 0.997857
    outer loop
      vertex 10 -2.5 2.8
      vertex 9.84337 -1.3 2.81027
      vertex 9.84337 -2.5 2.81027
    endloop
  endfacet
  facet normal -0.0654405 0 0.997856
    outer loop
      vertex 10 2.5 2.8
      vertex 10.1566 1.3 2.81027
      vertex 10.1566 2.5 2.81027
    endloop
  endfacet
  facet normal -0.0654405 0 0.997856
    outer loop
      vertex 10.1566 1.3 2.81027
      vertex 10 2.5 2.8
      vertex 10 1.3 2.8
    endloop
  endfacet
  facet normal -0.0654405 0 0.997856
    outer loop
      vertex 10 -1.3 2.8
      vertex 10.1566 -2.5 2.81027
      vertex 10.1566 -1.3 2.81027
    endloop
  endfacet
  facet normal -0.0654405 0 0.997856
    outer loop
      vertex 10.1566 -2.5 2.81027
      vertex 10 -1.3 2.8
      vertex 10 -2.5 2.8
    endloop
  endfacet
  facet normal -0.442264 0 0.896885
    outer loop
      vertex 10.4592 2.5 2.89134
      vertex 10.6 1.3 2.96077
      vertex 10.6 2.5 2.96077
    endloop
  endfacet
  facet normal -0.442264 0 0.896885
    outer loop
      vertex 10.6 1.3 2.96077
      vertex 10.4592 2.5 2.89134
      vertex 10.4592 1.3 2.89134
    endloop
  endfacet
  facet normal -0.442264 0 0.896885
    outer loop
      vertex 10.4592 -1.3 2.89134
      vertex 10.6 -2.5 2.96077
      vertex 10.6 -1.3 2.96077
    endloop
  endfacet
  facet normal -0.442264 0 0.896885
    outer loop
      vertex 10.6 -2.5 2.96077
      vertex 10.4592 -1.3 2.89134
      vertex 10.4592 -2.5 2.89134
    endloop
  endfacet
  facet normal -0.555626 0 -0.831432
    outer loop
      vertex 10.6 1.3 5.03923
      vertex 10.7305 2.5 4.95202
      vertex 10.7305 1.3 4.95202
    endloop
  endfacet
  facet normal -0.555626 0 -0.831432
    outer loop
      vertex 10.7305 2.5 4.95202
      vertex 10.6 1.3 5.03923
      vertex 10.6 2.5 5.03923
    endloop
  endfacet
  facet normal -0.555626 0 -0.831432
    outer loop
      vertex 10.6 -2.5 5.03923
      vertex 10.7305 -1.3 4.95202
      vertex 10.7305 -2.5 4.95202
    endloop
  endfacet
  facet normal -0.555626 0 -0.831432
    outer loop
      vertex 10.7305 -1.3 4.95202
      vertex 10.6 -2.5 5.03923
      vertex 10.6 -1.3 5.03923
    endloop
  endfacet
  facet normal -0.442212 0 -0.89691
    outer loop
      vertex 10.4592 1.3 5.10865
      vertex 10.6 2.5 5.03923
      vertex 10.6 1.3 5.03923
    endloop
  endfacet
  facet normal -0.442212 0 -0.89691
    outer loop
      vertex 10.6 2.5 5.03923
      vertex 10.4592 1.3 5.10865
      vertex 10.4592 2.5 5.10865
    endloop
  endfacet
  facet normal -0.442212 0 -0.89691
    outer loop
      vertex 10.4592 -2.5 5.10865
      vertex 10.6 -1.3 5.03923
      vertex 10.6 -2.5 5.03923
    endloop
  endfacet
  facet normal -0.442212 0 -0.89691
    outer loop
      vertex 10.6 -1.3 5.03923
      vertex 10.4592 -2.5 5.10865
      vertex 10.4592 -1.3 5.10865
    endloop
  endfacet
  facet normal 0.831452 0 -0.555597
    outer loop
      vertex 9.04798 1.3 4.73051
      vertex 8.96077 2.5 4.6
      vertex 9.04798 2.5 4.73051
    endloop
  endfacet
  facet normal 0.831452 0 -0.555597
    outer loop
      vertex 8.96077 2.5 4.6
      vertex 9.04798 1.3 4.73051
      vertex 8.96077 1.3 4.6
    endloop
  endfacet
  facet normal 0.831452 0 -0.555597
    outer loop
      vertex 9.04798 -2.5 4.73051
      vertex 8.96077 -1.3 4.6
      vertex 9.04798 -1.3 4.73051
    endloop
  endfacet
  facet normal 0.831452 0 -0.555597
    outer loop
      vertex 8.96077 -1.3 4.6
      vertex 9.04798 -2.5 4.73051
      vertex 8.96077 -2.5 4.6
    endloop
  endfacet
  facet normal 0.997857 0 -0.065428
    outer loop
      vertex 8.81027 1.3 4.15663
      vertex 8.8 2.5 4
      vertex 8.81027 2.5 4.15663
    endloop
  endfacet
  facet normal 0.997857 0 -0.065428
    outer loop
      vertex 8.8 2.5 4
      vertex 8.81027 1.3 4.15663
      vertex 8.8 1.3 4
    endloop
  endfacet
  facet normal 0.997857 0 -0.065428
    outer loop
      vertex 8.81027 -2.5 4.15663
      vertex 8.8 -1.3 4
      vertex 8.81027 -1.3 4.15663
    endloop
  endfacet
  facet normal 0.997857 0 -0.065428
    outer loop
      vertex 8.8 -1.3 4
      vertex 8.81027 -2.5 4.15663
      vertex 8.8 -2.5 4
    endloop
  endfacet
  facet normal 0.555597 0 -0.831452
    outer loop
      vertex 9.26949 1.3 4.95202
      vertex 9.4 2.5 5.03923
      vertex 9.4 1.3 5.03923
    endloop
  endfacet
  facet normal 0.555597 0 -0.831452
    outer loop
      vertex 9.4 2.5 5.03923
      vertex 9.26949 1.3 4.95202
      vertex 9.26949 2.5 4.95202
    endloop
  endfacet
  facet normal 0.555597 0 -0.831452
    outer loop
      vertex 9.26949 -2.5 4.95202
      vertex 9.4 -1.3 5.03923
      vertex 9.4 -2.5 5.03923
    endloop
  endfacet
  facet normal 0.555597 0 -0.831452
    outer loop
      vertex 9.4 -1.3 5.03923
      vertex 9.26949 -2.5 4.95202
      vertex 9.26949 -1.3 4.95202
    endloop
  endfacet
  facet normal 0.195075 0 -0.980788
    outer loop
      vertex 9.68942 1.3 5.15911
      vertex 9.84337 2.5 5.18973
      vertex 9.84337 1.3 5.18973
    endloop
  endfacet
  facet normal 0.195075 0 -0.980788
    outer loop
      vertex 9.84337 2.5 5.18973
      vertex 9.68942 1.3 5.15911
      vertex 9.68942 2.5 5.15911
    endloop
  endfacet
  facet normal 0.195075 0 -0.980788
    outer loop
      vertex 9.68942 -2.5 5.15911
      vertex 9.84337 -1.3 5.18973
      vertex 9.84337 -2.5 5.18973
    endloop
  endfacet
  facet normal 0.195075 0 -0.980788
    outer loop
      vertex 9.84337 -1.3 5.18973
      vertex 9.68942 -2.5 5.15911
      vertex 9.68942 -1.3 5.15911
    endloop
  endfacet
  facet normal 0.32146 0 -0.946923
    outer loop
      vertex 9.54078 1.3 5.10865
      vertex 9.68942 2.5 5.15911
      vertex 9.68942 1.3 5.15911
    endloop
  endfacet
  facet normal 0.32146 0 -0.946923
    outer loop
      vertex 9.68942 2.5 5.15911
      vertex 9.54078 1.3 5.10865
      vertex 9.54078 2.5 5.10865
    endloop
  endfacet
  facet normal 0.32146 0 -0.946923
    outer loop
      vertex 9.54078 -2.5 5.10865
      vertex 9.68942 -1.3 5.15911
      vertex 9.68942 -2.5 5.15911
    endloop
  endfacet
  facet normal 0.32146 0 -0.946923
    outer loop
      vertex 9.68942 -1.3 5.15911
      vertex 9.54078 -2.5 5.10865
      vertex 9.54078 -1.3 5.10865
    endloop
  endfacet
  facet normal -0.896683 0 0.442673
    outer loop
      vertex 11.0392 1.3 3.4
      vertex 11.1087 2.5 3.54078
      vertex 11.0392 2.5 3.4
    endloop
  endfacet
  facet normal -0.896683 0 0.442673
    outer loop
      vertex 11.1087 2.5 3.54078
      vertex 11.0392 1.3 3.4
      vertex 11.1087 1.3 3.54078
    endloop
  endfacet
  facet normal -0.896683 0 0.442673
    outer loop
      vertex 11.0392 -2.5 3.4
      vertex 11.1087 -1.3 3.54078
      vertex 11.0392 -1.3 3.4
    endloop
  endfacet
  facet normal -0.896683 0 0.442673
    outer loop
      vertex 11.1087 -1.3 3.54078
      vertex 11.0392 -2.5 3.4
      vertex 11.1087 -2.5 3.54078
    endloop
  endfacet
  facet normal -0.555626 0 0.831432
    outer loop
      vertex 10.6 2.5 2.96077
      vertex 10.7305 1.3 3.04798
      vertex 10.7305 2.5 3.04798
    endloop
  endfacet
  facet normal -0.555626 0 0.831432
    outer loop
      vertex 10.7305 1.3 3.04798
      vertex 10.6 2.5 2.96077
      vertex 10.6 1.3 2.96077
    endloop
  endfacet
  facet normal -0.555626 0 0.831432
    outer loop
      vertex 10.6 -1.3 2.96077
      vertex 10.7305 -2.5 3.04798
      vertex 10.7305 -1.3 3.04798
    endloop
  endfacet
  facet normal -0.555626 0 0.831432
    outer loop
      vertex 10.7305 -2.5 3.04798
      vertex 10.6 -1.3 2.96077
      vertex 10.6 -2.5 2.96077
    endloop
  endfacet
  facet normal -0.997845 0 0.0656183
    outer loop
      vertex 11.1897 1.3 3.84337
      vertex 11.2 2.5 4
      vertex 11.1897 2.5 3.84337
    endloop
  endfacet
  facet normal -0.997845 0 0.0656183
    outer loop
      vertex 11.2 2.5 4
      vertex 11.1897 1.3 3.84337
      vertex 11.2 1.3 4
    endloop
  endfacet
  facet normal -0.997845 0 0.0656183
    outer loop
      vertex 11.1897 -2.5 3.84337
      vertex 11.2 -1.3 4
      vertex 11.1897 -1.3 3.84337
    endloop
  endfacet
  facet normal -0.997845 0 0.0656183
    outer loop
      vertex 11.2 -1.3 4
      vertex 11.1897 -2.5 3.84337
      vertex 11.2 -2.5 4
    endloop
  endfacet
  facet normal 0.751874 -0 0.659307
    outer loop
      vertex 9.04798 1.3 3.26949
      vertex 9.15147 2.5 3.15147
      vertex 9.04798 2.5 3.26949
    endloop
  endfacet
  facet normal 0.751874 0 0.659307
    outer loop
      vertex 9.15147 2.5 3.15147
      vertex 9.04798 1.3 3.26949
      vertex 9.15147 1.3 3.15147
    endloop
  endfacet
  facet normal 0.751874 -0 0.659307
    outer loop
      vertex 9.04798 -2.5 3.26949
      vertex 9.15147 -1.3 3.15147
      vertex 9.04798 -1.3 3.26949
    endloop
  endfacet
  facet normal 0.751874 0 0.659307
    outer loop
      vertex 9.15147 -1.3 3.15147
      vertex 9.04798 -2.5 3.26949
      vertex 9.15147 -2.5 3.15147
    endloop
  endfacet
  facet normal 0.831452 -0 0.555597
    outer loop
      vertex 8.96077 1.3 3.4
      vertex 9.04798 2.5 3.26949
      vertex 8.96077 2.5 3.4
    endloop
  endfacet
  facet normal 0.831452 0 0.555597
    outer loop
      vertex 9.04798 2.5 3.26949
      vertex 8.96077 1.3 3.4
      vertex 9.04798 1.3 3.26949
    endloop
  endfacet
  facet normal 0.831452 -0 0.555597
    outer loop
      vertex 8.96077 -2.5 3.4
      vertex 9.04798 -1.3 3.26949
      vertex 8.96077 -1.3 3.4
    endloop
  endfacet
  facet normal 0.831452 0 0.555597
    outer loop
      vertex 9.04798 -1.3 3.26949
      vertex 8.96077 -2.5 3.4
      vertex 9.04798 -2.5 3.26949
    endloop
  endfacet
  facet normal 0.980788 -0 0.195075
    outer loop
      vertex 8.81027 1.3 3.84337
      vertex 8.84089 2.5 3.68942
      vertex 8.81027 2.5 3.84337
    endloop
  endfacet
  facet normal 0.980788 0 0.195075
    outer loop
      vertex 8.84089 2.5 3.68942
      vertex 8.81027 1.3 3.84337
      vertex 8.84089 1.3 3.68942
    endloop
  endfacet
  facet normal 0.980788 -0 0.195075
    outer loop
      vertex 8.81027 -2.5 3.84337
      vertex 8.84089 -1.3 3.68942
      vertex 8.81027 -1.3 3.84337
    endloop
  endfacet
  facet normal 0.980788 0 0.195075
    outer loop
      vertex 8.84089 -1.3 3.68942
      vertex 8.81027 -2.5 3.84337
      vertex 8.84089 -2.5 3.68942
    endloop
  endfacet
  facet normal 0.946943 -0 0.321402
    outer loop
      vertex 8.84089 1.3 3.68942
      vertex 8.89134 2.5 3.54078
      vertex 8.84089 2.5 3.68942
    endloop
  endfacet
  facet normal 0.946943 0 0.321402
    outer loop
      vertex 8.89134 2.5 3.54078
      vertex 8.84089 1.3 3.68942
      vertex 8.89134 1.3 3.54078
    endloop
  endfacet
  facet normal 0.946943 -0 0.321402
    outer loop
      vertex 8.84089 -2.5 3.68942
      vertex 8.89134 -1.3 3.54078
      vertex 8.84089 -1.3 3.68942
    endloop
  endfacet
  facet normal 0.946943 0 0.321402
    outer loop
      vertex 8.89134 -1.3 3.54078
      vertex 8.84089 -2.5 3.68942
      vertex 8.89134 -2.5 3.54078
    endloop
  endfacet
  facet normal -0.32148 0 0.946916
    outer loop
      vertex 10.3106 2.5 2.84089
      vertex 10.4592 1.3 2.89134
      vertex 10.4592 2.5 2.89134
    endloop
  endfacet
  facet normal -0.32148 0 0.946916
    outer loop
      vertex 10.4592 1.3 2.89134
      vertex 10.3106 2.5 2.84089
      vertex 10.3106 1.3 2.84089
    endloop
  endfacet
  facet normal -0.32148 0 0.946916
    outer loop
      vertex 10.3106 -1.3 2.84089
      vertex 10.4592 -2.5 2.89134
      vertex 10.4592 -1.3 2.89134
    endloop
  endfacet
  facet normal -0.32148 0 0.946916
    outer loop
      vertex 10.4592 -2.5 2.89134
      vertex 10.3106 -1.3 2.84089
      vertex 10.3106 -2.5 2.84089
    endloop
  endfacet
  facet normal -0.831481 0 0.555553
    outer loop
      vertex 10.952 1.3 3.26949
      vertex 11.0392 2.5 3.4
      vertex 10.952 2.5 3.26949
    endloop
  endfacet
  facet normal -0.831481 0 0.555553
    outer loop
      vertex 11.0392 2.5 3.4
      vertex 10.952 1.3 3.26949
      vertex 11.0392 1.3 3.4
    endloop
  endfacet
  facet normal -0.831481 0 0.555553
    outer loop
      vertex 10.952 -2.5 3.26949
      vertex 11.0392 -1.3 3.4
      vertex 10.952 -1.3 3.26949
    endloop
  endfacet
  facet normal -0.831481 0 0.555553
    outer loop
      vertex 11.0392 -1.3 3.4
      vertex 10.952 -2.5 3.26949
      vertex 11.0392 -2.5 3.4
    endloop
  endfacet
  facet normal -0.65937 0 0.751818
    outer loop
      vertex 10.7305 2.5 3.04798
      vertex 10.8485 1.3 3.15147
      vertex 10.8485 2.5 3.15147
    endloop
  endfacet
  facet normal -0.65937 0 0.751818
    outer loop
      vertex 10.8485 1.3 3.15147
      vertex 10.7305 2.5 3.04798
      vertex 10.7305 1.3 3.04798
    endloop
  endfacet
  facet normal -0.65937 0 0.751818
    outer loop
      vertex 10.7305 -1.3 3.04798
      vertex 10.8485 -2.5 3.15147
      vertex 10.8485 -1.3 3.15147
    endloop
  endfacet
  facet normal -0.65937 0 0.751818
    outer loop
      vertex 10.8485 -2.5 3.15147
      vertex 10.7305 -1.3 3.04798
      vertex 10.7305 -2.5 3.04798
    endloop
  endfacet
  facet normal 0.321402 0 0.946943
    outer loop
      vertex 9.54078 2.5 2.89134
      vertex 9.68942 1.3 2.84089
      vertex 9.68942 2.5 2.84089
    endloop
  endfacet
  facet normal 0.321402 0 0.946943
    outer loop
      vertex 9.68942 1.3 2.84089
      vertex 9.54078 2.5 2.89134
      vertex 9.54078 1.3 2.89134
    endloop
  endfacet
  facet normal 0.321402 0 0.946943
    outer loop
      vertex 9.54078 -1.3 2.89134
      vertex 9.68942 -2.5 2.84089
      vertex 9.68942 -1.3 2.84089
    endloop
  endfacet
  facet normal 0.321402 0 0.946943
    outer loop
      vertex 9.68942 -2.5 2.84089
      vertex 9.54078 -1.3 2.89134
      vertex 9.54078 -2.5 2.89134
    endloop
  endfacet
  facet normal 0.195075 0 0.980788
    outer loop
      vertex 9.68942 2.5 2.84089
      vertex 9.84337 1.3 2.81027
      vertex 9.84337 2.5 2.81027
    endloop
  endfacet
  facet normal 0.195075 0 0.980788
    outer loop
      vertex 9.84337 1.3 2.81027
      vertex 9.68942 2.5 2.84089
      vertex 9.68942 1.3 2.84089
    endloop
  endfacet
  facet normal 0.195075 0 0.980788
    outer loop
      vertex 9.68942 -1.3 2.84089
      vertex 9.84337 -2.5 2.81027
      vertex 9.84337 -1.3 2.81027
    endloop
  endfacet
  facet normal 0.195075 0 0.980788
    outer loop
      vertex 9.84337 -2.5 2.81027
      vertex 9.68942 -1.3 2.84089
      vertex 9.68942 -2.5 2.84089
    endloop
  endfacet
  facet normal 0.659307 0 0.751874
    outer loop
      vertex 9.15147 2.5 3.15147
      vertex 9.26949 1.3 3.04798
      vertex 9.26949 2.5 3.04798
    endloop
  endfacet
  facet normal 0.659307 0 0.751874
    outer loop
      vertex 9.26949 1.3 3.04798
      vertex 9.15147 2.5 3.15147
      vertex 9.15147 1.3 3.15147
    endloop
  endfacet
  facet normal 0.659307 0 0.751874
    outer loop
      vertex 9.15147 -1.3 3.15147
      vertex 9.26949 -2.5 3.04798
      vertex 9.26949 -1.3 3.04798
    endloop
  endfacet
  facet normal 0.659307 0 0.751874
    outer loop
      vertex 9.26949 -2.5 3.04798
      vertex 9.15147 -1.3 3.15147
      vertex 9.15147 -2.5 3.15147
    endloop
  endfacet
  facet normal 0.555597 0 0.831452
    outer loop
      vertex 9.26949 2.5 3.04798
      vertex 9.4 1.3 2.96077
      vertex 9.4 2.5 2.96077
    endloop
  endfacet
  facet normal 0.555597 0 0.831452
    outer loop
      vertex 9.4 1.3 2.96077
      vertex 9.26949 2.5 3.04798
      vertex 9.26949 1.3 3.04798
    endloop
  endfacet
  facet normal 0.555597 0 0.831452
    outer loop
      vertex 9.26949 -1.3 3.04798
      vertex 9.4 -2.5 2.96077
      vertex 9.4 -1.3 2.96077
    endloop
  endfacet
  facet normal 0.555597 0 0.831452
    outer loop
      vertex 9.4 -2.5 2.96077
      vertex 9.26949 -1.3 3.04798
      vertex 9.26949 -2.5 3.04798
    endloop
  endfacet
  facet normal 0.442314 0 0.89686
    outer loop
      vertex 9.4 2.5 2.96077
      vertex 9.54078 1.3 2.89134
      vertex 9.54078 2.5 2.89134
    endloop
  endfacet
  facet normal 0.442314 0 0.89686
    outer loop
      vertex 9.54078 1.3 2.89134
      vertex 9.4 2.5 2.96077
      vertex 9.4 1.3 2.96077
    endloop
  endfacet
  facet normal 0.442314 0 0.89686
    outer loop
      vertex 9.4 -1.3 2.96077
      vertex 9.54078 -2.5 2.89134
      vertex 9.54078 -1.3 2.89134
    endloop
  endfacet
  facet normal 0.442314 0 0.89686
    outer loop
      vertex 9.54078 -2.5 2.89134
      vertex 9.4 -1.3 2.96077
      vertex 9.4 -2.5 2.96077
    endloop
  endfacet
endsolid OpenSCAD_Model
